<svg width="18" height="14" viewBox="0 0 18 14" fill="none" xmlns="http://www.w3.org/2000/svg">
<path opacity="0.4" fill-rule="evenodd" clip-rule="evenodd" d="M0.848617 0.021695C0.531944 0.101749 0.240454 0.348851 0.0911521 0.66384C-0.0277544 0.914706 -0.0308186 1.38597 0.0848475 1.63321C0.205515 1.8911 0.348689 2.04664 0.590623 2.18274L0.813396 2.30802H9.00231H17.1912L17.3711 2.20956C17.6379 2.06355 17.7475 1.95347 17.8803 1.69789C17.9896 1.48765 18 1.44074 18 1.1571C18 0.873236 17.9896 0.826651 17.8799 0.615428C17.7502 0.365951 17.6021 0.218486 17.3508 0.0886316L17.1912 0.00616651L9.07275 0.000576288C4.60759 -0.00249286 0.906732 0.00700698 0.848617 0.021695ZM0.848617 5.86768C0.531944 5.94774 0.240454 6.19484 0.0911521 6.50983C-0.0277544 6.76069 -0.0308186 7.23195 0.0848475 7.4792C0.205515 7.73708 0.348689 7.89262 0.590623 8.02873L0.813396 8.15401H9.00231H17.1912L17.3711 8.05554C17.6379 7.90954 17.7475 7.79945 17.8803 7.54387C17.9896 7.33364 18 7.28672 18 7.00308C18 6.71922 17.9896 6.67264 17.8799 6.46142C17.7502 6.21194 17.6021 6.06447 17.3508 5.93462L17.1912 5.85215L9.07275 5.84656C4.60759 5.84349 0.906732 5.85299 0.848617 5.86768ZM0.848617 11.7137C0.531944 11.7937 0.240454 12.0408 0.0911521 12.3558C-0.0277544 12.6067 -0.0308186 13.0779 0.0848475 13.3252C0.205515 13.5831 0.348689 13.7386 0.590623 13.8747L0.813396 14H9.00231H17.1912L17.3711 13.9015C17.6379 13.7555 17.7475 13.6454 17.8803 13.3899C17.9896 13.1796 18 13.1327 18 12.8491C18 12.5652 17.9896 12.5186 17.8799 12.3074C17.7502 12.0579 17.6021 11.9105 17.3508 11.7806L17.1912 11.6981L9.07275 11.6926C4.60759 11.6895 0.906732 11.699 0.848617 11.7137Z" fill="white"/>
</svg>
