<svg width="20" height="20" viewBox="0 0 20 20" fill="none" xmlns="http://www.w3.org/2000/svg">
<path fill-rule="evenodd" clip-rule="evenodd" d="M1.84862 3.0217C1.53194 3.10175 1.24045 3.34885 1.09115 3.66384C0.972246 3.91471 0.969181 4.38597 1.08485 4.63321C1.20552 4.8911 1.34869 5.04664 1.59062 5.18274L1.8134 5.30802H10.0023H18.1912L18.3711 5.20956C18.6379 5.06355 18.7475 4.95347 18.8803 4.69789C18.9896 4.48765 19 4.44074 19 4.1571C19 3.87324 18.9896 3.82665 18.8799 3.61543C18.7502 3.36595 18.6021 3.21849 18.3508 3.08863L18.1912 3.00617L10.0727 3.00058C5.60759 2.99751 1.90673 3.00701 1.84862 3.0217ZM1.84862 8.86768C1.53194 8.94774 1.24045 9.19484 1.09115 9.50983C0.972246 9.76069 0.969181 10.232 1.08485 10.4792C1.20552 10.7371 1.34869 10.8926 1.59062 11.0287L1.8134 11.154H10.0023H18.1912L18.3711 11.0555C18.6379 10.9095 18.7475 10.7995 18.8803 10.5439C18.9896 10.3336 19 10.2867 19 10.0031C19 9.71922 18.9896 9.67264 18.8799 9.46142C18.7502 9.21194 18.6021 9.06447 18.3508 8.93462L18.1912 8.85215L10.0727 8.84656C5.60759 8.84349 1.90673 8.85299 1.84862 8.86768ZM1.84862 14.7137C1.53194 14.7937 1.24045 15.0408 1.09115 15.3558C0.972246 15.6067 0.969181 16.0779 1.08485 16.3252C1.20552 16.5831 1.34869 16.7386 1.59062 16.8747L1.8134 17H10.0023H18.1912L18.3711 16.9015C18.6379 16.7555 18.7475 16.6454 18.8803 16.3899C18.9896 16.1796 19 16.1327 19 15.8491C19 15.5652 18.9896 15.5186 18.8799 15.3074C18.7502 15.0579 18.6021 14.9105 18.3508 14.7806L18.1912 14.6981L10.0727 14.6926C5.60759 14.6895 1.90673 14.699 1.84862 14.7137Z" fill="white"/>
</svg>
